<svg width="480" height="360" viewBox="0 0 480 360" fill="none" xmlns="http://www.w3.org/2000/svg">
<g clip-path="url(#clip0_180_536)">
<path opacity="0.2" fill-rule="evenodd" clip-rule="evenodd" d="M0 198.781C0 240.238 14.945 278.016 39.539 306.566C67.753 339.331 108.667 359.931 154.273 360C173.644 360.042 192.837 356.293 210.768 348.964C219.819 345.265 229.95 345.69 238.716 350.071C249.258 355.346 260.885 358.089 272.673 358.082C277.696 358.082 282.615 357.587 287.373 356.648C300.954 353.978 313.313 347.658 323.462 338.708C329.841 333.081 338.01 330.252 346.36 330.262H346.502C374.091 330.262 399.717 321.53 420.994 306.566C440.015 293.206 455.548 274.87 465.898 253.341C474.92 234.581 480 213.388 480 190.958C480 114.027 420.226 51.653 346.502 51.653C338.986 51.653 331.622 52.316 324.439 53.552C305.418 21.42 271.355 4.21779e-05 232.498 4.21779e-05C216.589 -0.0143085 200.891 3.63354 186.619 10.661C173.379 17.148 161.608 26.366 151.978 37.6C119.281 38.144 89.048 49.29 64.303 67.891C25.351 97.155 0 144.882 0 198.781Z" fill="url(#paint0_linear_180_536)"/>
<g filter="url(#filter0_d_180_536)">
<path opacity="0.15" d="M182.109 142.246C206.754 142.246 226.732 122.268 226.732 97.623C226.732 72.9784 206.754 53 182.109 53C157.465 53 137.486 72.9784 137.486 97.623C137.486 122.268 157.465 142.246 182.109 142.246Z" fill="#FFC107"/>
<path d="M182.109 121.029C195.036 121.029 205.515 110.55 205.515 97.6228C205.515 84.696 195.036 74.2168 182.109 74.2168C169.182 74.2168 158.703 84.696 158.703 97.6228C158.703 110.55 169.182 121.029 182.109 121.029Z" fill="url(#paint1_linear_180_536)"/>
<path fill-rule="evenodd" clip-rule="evenodd" d="M244.879 306.611C279.439 306.611 307.454 278.595 307.454 244.036C307.454 209.476 279.439 181.46 244.879 181.46C210.32 181.46 182.304 209.476 182.304 244.036C182.304 278.595 210.32 306.611 244.879 306.611ZM244.879 283.425C266.633 283.425 284.268 265.79 284.268 244.036C284.268 222.281 266.633 204.646 244.879 204.646C223.125 204.646 205.49 222.281 205.49 244.036C205.49 265.79 223.125 283.425 244.879 283.425Z" fill="#061B64"/>
<path opacity="0.24" d="M425.621 117.222C425.621 116.024 425.36 114.84 424.857 113.752C424.354 112.665 423.621 111.7 422.708 110.924C421.795 110.148 420.724 109.58 419.57 109.259C418.415 108.938 417.205 108.872 416.022 109.065C415.073 107.294 413.662 105.814 411.94 104.78C410.217 103.747 408.247 103.199 406.238 103.195H405.835C406.485 100.586 406.325 97.8405 405.376 95.3249C404.426 92.8093 402.733 90.6427 400.521 89.1138C398.309 87.5848 395.684 86.7661 392.995 86.7666C390.306 86.7671 387.682 87.5869 385.47 89.1167C383.259 90.6453 381.566 92.8113 380.616 95.3263C379.666 97.8413 379.505 100.586 380.154 103.195H379.751C378.256 103.144 376.765 103.394 375.368 103.931C373.971 104.468 372.696 105.281 371.62 106.321C370.544 107.361 369.688 108.608 369.103 109.985C368.519 111.363 368.218 112.845 368.218 114.341C368.218 115.838 368.519 117.319 369.103 118.697C369.688 120.075 370.544 121.321 371.62 122.361C372.696 123.401 373.971 124.214 375.368 124.751C376.765 125.288 378.256 125.539 379.751 125.488H418.431V125.415C420.419 125.151 422.243 124.175 423.565 122.669C424.887 121.162 425.618 119.226 425.621 117.222ZM104.258 199.045C104.258 197.164 103.511 195.36 102.181 194.03C100.85 192.7 99.0464 191.953 97.1654 191.953C96.7844 191.96 96.4044 191.992 96.0274 192.05C95.2089 190.528 93.9931 189.258 92.5095 188.373C91.0258 187.487 89.33 187.021 87.6024 187.024H87.2594C87.6799 185.35 87.7131 183.603 87.3566 181.914C87.0001 180.226 86.2632 178.641 85.202 177.28C84.1408 175.919 82.7833 174.819 81.2326 174.061C79.682 173.304 77.9791 172.911 76.2534 172.911C74.5278 172.911 72.8249 173.304 71.2743 174.061C69.7236 174.819 68.3661 175.919 67.3049 177.28C66.2437 178.641 65.5068 180.226 65.1503 181.914C64.7938 183.603 64.827 185.35 65.2474 187.024H64.9054C63.6196 186.975 62.3371 187.185 61.1346 187.643C59.9322 188.101 58.8345 188.798 57.9074 189.69C56.9803 190.582 56.2428 191.652 55.739 192.836C55.2352 194.02 54.9756 195.294 54.9756 196.581C54.9756 197.867 55.2352 199.141 55.739 200.325C56.2428 201.509 56.9803 202.579 57.9074 203.472C58.8345 204.364 59.9322 205.06 61.1346 205.518C62.3371 205.976 63.6196 206.187 64.9054 206.138H98.0824V206.077C99.7889 205.851 101.355 205.014 102.491 203.721C103.627 202.428 104.255 200.766 104.258 199.045Z" fill="#2065D1"/>
<path d="M394.548 192.356C394.548 187.88 393.056 186.719 388.911 186.719M375.162 299.61C375.293 303.331 376.832 304.691 380.779 304.691M388.899 304.691C393.044 304.691 394.536 303.199 394.536 299.066M157.456 258.967V259.467H157.956H169.329C171.365 259.467 172.602 259.838 173.348 260.583C174.095 261.328 174.466 262.562 174.466 264.592V271.722C174.466 273.777 174.155 275.008 173.442 275.748C172.735 276.484 171.509 276.859 169.329 276.859H157.895H157.395V277.359V299.066C157.395 301.095 157.024 302.329 156.277 303.074C155.531 303.819 154.293 304.191 152.257 304.191H144.137C142.107 304.191 140.873 303.82 140.128 303.075C139.383 302.33 139.012 301.095 139.012 299.066V277.359V276.859H138.512H83.8358C81.8063 276.859 80.5722 276.488 79.8273 275.741C79.0822 274.995 78.7108 273.758 78.7108 271.722V265.754V265.742L78.7103 265.731C78.6046 263.431 79.2575 261.159 80.5684 259.267L135.587 191.007L135.593 190.999L135.599 190.991C136.474 189.816 137.612 188.863 138.923 188.208C140.233 187.552 141.679 187.214 143.144 187.219H143.146H152.318C154.379 187.219 155.608 187.516 156.347 188.221C157.08 188.92 157.456 190.142 157.456 192.356V258.967ZM102.157 258.652L101.498 259.467H102.546H138.512H139.012V258.967V214.552V213.14L138.123 214.237L102.157 258.652Z" fill="#2065D1" stroke="#5288E4"/>
</g>
<path d="M399.601 291.306V304H325.322V291.306H356.2V212.738C347.28 218.113 341.104 221.659 337.673 223.374C334.357 224.975 331.555 225.776 329.267 225.776C323.092 225.776 320.004 222.002 320.004 214.454C332.584 209.536 349.51 200.73 370.781 188.036L376.271 190.781V291.306H399.601Z" fill="#2065D1"/>
</g>
<defs>
<filter id="filter0_d_180_536" x="50.9756" y="49" width="394.646" height="277.611" filterUnits="userSpaceOnUse" color-interpolation-filters="sRGB">
<feFlood flood-opacity="0" result="BackgroundImageFix"/>
<feColorMatrix in="SourceAlpha" type="matrix" values="0 0 0 0 0 0 0 0 0 0 0 0 0 0 0 0 0 0 127 0" result="hardAlpha"/>
<feOffset dx="8" dy="8"/>
<feGaussianBlur stdDeviation="6"/>
<feColorMatrix type="matrix" values="0 0 0 0 0 0 0 0 0 0 0 0 0 0 0 0 0 0 0.12 0"/>
<feBlend mode="normal" in2="BackgroundImageFix" result="effect1_dropShadow_180_536"/>
<feBlend mode="normal" in="SourceGraphic" in2="effect1_dropShadow_180_536" result="shape"/>
</filter>
<linearGradient id="paint0_linear_180_536" x1="328.81" y1="424.032" x2="505.393" y2="26.048" gradientUnits="userSpaceOnUse">
<stop stop-color="#2065D1"/>
<stop offset="1" stop-color="#2065D1" stop-opacity="0.01"/>
</linearGradient>
<linearGradient id="paint1_linear_180_536" x1="135.297" y1="97.6228" x2="182.109" y2="144.436" gradientUnits="userSpaceOnUse">
<stop stop-color="#FFE16A"/>
<stop offset="1" stop-color="#B78103"/>
</linearGradient>
<clipPath id="clip0_180_536">
<rect width="480" height="360" fill="white"/>
</clipPath>
</defs>
</svg>
